<mxfile host="app.diagrams.net" modified="2024-02-22T14:28:40.351Z" agent="Mozilla/5.0 (Windows NT 10.0; Win64; x64; rv:122.0) Gecko/20100101 Firefox/122.0" etag="swJFuF4Mu8jgMYc4OJ47" version="23.1.4" type="github">
  <diagram name="Page-1" id="cAS1ks6IdNPJcQCvlLyu">
    <mxGraphModel dx="751" dy="400" grid="1" gridSize="10" guides="1" tooltips="1" connect="1" arrows="1" fold="1" page="1" pageScale="1" pageWidth="1700" pageHeight="1100" math="0" shadow="0">
      <root>
        <mxCell id="0" />
        <mxCell id="1" parent="0" />
      </root>
    </mxGraphModel>
  </diagram>
</mxfile>
